<svg width="24" height="24" viewBox="0 0 24 24" fill="none" xmlns="http://www.w3.org/2000/svg">
<mask id="mask0_282_4968" style="mask-type:alpha" maskUnits="userSpaceOnUse" x="0" y="0" width="24" height="24">
<rect x="24" width="24" height="24" transform="rotate(90 24 0)" fill="#D9D9D9"/>
</mask>
<g mask="url(#mask0_282_4968)">
<path d="M11.15 6.325C11.25 6.175 11.375 6.0625 11.525 5.9875C11.675 5.9125 11.8334 5.875 12 5.875C12.1667 5.875 12.325 5.9125 12.475 5.9875C12.625 6.0625 12.75 6.175 12.85 6.325L18.025 14.475C18.075 14.5583 18.1125 14.6458 18.1375 14.7375C18.1625 14.8292 18.175 14.9167 18.175 15C18.175 15.2667 18.0792 15.5 17.8875 15.7C17.6959 15.9 17.4584 16 17.175 16L6.82505 16C6.54171 16 6.30421 15.9 6.11255 15.7C5.92088 15.5 5.82505 15.2667 5.82505 15C5.82505 14.9167 5.83755 14.8292 5.86255 14.7375C5.88755 14.6458 5.92505 14.5583 5.97505 14.475L11.15 6.325Z" fill="#12B76A"/>
</g>
</svg>
