<svg width="24" height="24" viewBox="0 0 24 24" fill="none" xmlns="http://www.w3.org/2000/svg">
<mask id="mask0_282_4988" style="mask-type:alpha" maskUnits="userSpaceOnUse" x="0" y="0" width="24" height="24">
<rect y="24" width="24" height="24" transform="rotate(-90 0 24)" fill="#D9D9D9"/>
</mask>
<g mask="url(#mask0_282_4988)">
<path d="M12.85 17.675C12.75 17.825 12.625 17.9375 12.475 18.0125C12.325 18.0875 12.1666 18.125 12 18.125C11.8333 18.125 11.675 18.0875 11.525 18.0125C11.375 17.9375 11.25 17.825 11.15 17.675L5.97495 9.525C5.92495 9.44167 5.88745 9.35417 5.86245 9.2625C5.83745 9.17083 5.82495 9.08333 5.82495 9C5.82495 8.73333 5.92078 8.5 6.11245 8.3C6.30412 8.1 6.54162 8 6.82495 8L17.175 8C17.4583 8 17.6958 8.1 17.8875 8.3C18.0791 8.5 18.175 8.73333 18.175 9C18.175 9.08333 18.1625 9.17083 18.1375 9.2625C18.1125 9.35417 18.075 9.44167 18.025 9.525L12.85 17.675Z" fill="#F04438"/>
</g>
</svg>
