<svg width="29" height="30" viewBox="0 0 29 30" fill="none" xmlns="http://www.w3.org/2000/svg">
<g clip-path="url(#clip0_282_4939)">
<path d="M22.1572 5.57622C22.4282 6.25784 22.9484 6.79963 23.6034 7.08249L25.9001 8.07189C26.5556 8.35424 27.0763 8.89583 27.3478 9.5775C27.6193 10.2592 27.6193 11.0251 27.3478 11.7067L26.3972 14.0936C26.1256 14.7756 26.1252 15.5423 26.398 16.2239L27.347 18.6101C27.4816 18.9477 27.5509 19.3096 27.551 19.6751C27.5511 20.0406 27.4819 20.4025 27.3474 20.7402C27.2129 21.0779 27.0157 21.3847 26.7672 21.6431C26.5187 21.9014 26.2236 22.1064 25.8989 22.2461L23.6038 23.2348C22.9484 23.5167 22.4274 24.0576 22.1555 24.7388L21.2041 27.1274C20.9326 27.8091 20.4119 28.3507 19.7564 28.633C19.101 28.9154 18.3645 28.9154 17.7091 28.633L15.414 27.6444C14.7585 27.3627 14.0223 27.3633 13.3673 27.646L11.0705 28.6339C10.4154 28.9156 9.67962 28.9154 9.02471 28.6333C8.36979 28.3511 7.84933 27.8102 7.57764 27.1293L6.62602 24.7399C6.35503 24.0583 5.83485 23.5165 5.17986 23.2337L2.88313 22.2443C2.22796 21.962 1.70737 21.4208 1.43577 20.7395C1.16417 20.0583 1.1638 19.2927 1.43475 18.6111L2.3854 16.2243C2.65623 15.5426 2.65568 14.7769 2.38386 14.0957L1.43457 11.7053C1.29998 11.3677 1.23068 11.0058 1.23062 10.6403C1.23057 10.2749 1.29976 9.91294 1.43424 9.57527C1.56873 9.2376 1.76588 8.93081 2.01441 8.67241C2.26295 8.41401 2.55801 8.20908 2.88273 8.06932L5.17782 7.08064C5.83265 6.79905 6.35329 6.25875 6.62548 5.57835L7.57681 3.18974C7.84831 2.50807 8.36906 1.96649 9.02451 1.68413C9.67996 1.40178 10.4164 1.40178 11.0719 1.68414L13.367 2.67282C14.0224 2.95448 14.7586 2.9539 15.4137 2.67122L17.7114 1.68567C18.3667 1.40347 19.103 1.40353 19.7584 1.68583C20.4137 1.96813 20.9344 2.50956 21.2059 3.19105L22.1575 5.58036L22.1572 5.57622Z" fill="#AEAEAE"/>
<path d="M14.1117 21.7851C13.1779 21.7851 12.3479 21.6251 11.6216 21.3052C10.8996 20.9853 10.3289 20.54 9.90956 19.9693C9.4902 19.3987 9.26756 18.7394 9.24162 17.9915H11.6799C11.7015 18.3503 11.8204 18.6637 12.0366 18.9318C12.2527 19.1955 12.5402 19.4008 12.8991 19.5478C13.2579 19.6948 13.66 19.7683 14.1053 19.7683C14.5808 19.7683 15.0023 19.6862 15.3698 19.5219C15.7373 19.3533 16.0248 19.1198 16.2323 18.8215C16.4398 18.5232 16.5414 18.1795 16.5371 17.7904C16.5414 17.3884 16.4376 17.0339 16.2258 16.7269C16.014 16.42 15.707 16.18 15.305 16.0071C14.9072 15.8342 14.4273 15.7477 13.8653 15.7477H12.6916V13.893H13.8653C14.3279 13.893 14.7321 13.8131 15.078 13.6531C15.4282 13.4931 15.7027 13.2683 15.9016 12.9787C16.1004 12.6847 16.1977 12.3453 16.1934 11.9605C16.1977 11.5844 16.1134 11.258 15.9405 10.9813C15.7719 10.7003 15.5319 10.482 15.2206 10.3264C14.9137 10.1707 14.5527 10.0929 14.1377 10.0929C13.7313 10.0929 13.3552 10.1664 13.0093 10.3134C12.6635 10.4604 12.3846 10.6701 12.1728 10.9424C11.9609 11.2105 11.8485 11.5304 11.8356 11.9022H9.52047C9.53776 11.1586 9.75176 10.5058 10.1625 9.94376C10.5775 9.37741 11.1309 8.93644 11.8226 8.62085C12.5143 8.30093 13.2903 8.14097 14.1506 8.14097C15.0369 8.14097 15.8064 8.30741 16.4593 8.6403C17.1164 8.96887 17.6244 9.412 17.9832 9.9697C18.342 10.5274 18.5214 11.1435 18.5214 11.8179C18.5258 12.5658 18.3053 13.1927 17.86 13.6985C17.419 14.2043 16.8397 14.535 16.122 14.6907V14.7944C17.0559 14.9241 17.7714 15.27 18.2685 15.832C18.77 16.3897 19.0186 17.0836 19.0143 17.9136C19.0143 18.6572 18.8024 19.323 18.3788 19.911C17.9594 20.4946 17.3801 20.9529 16.6408 21.2858C15.9059 21.6186 15.0628 21.7851 14.1117 21.7851Z" fill="white"/>
</g>
<defs>
<clipPath id="clip0_282_4939">
<rect width="28.5333" height="29.6747" fill="white" transform="translate(0.123291 0.320312)"/>
</clipPath>
</defs>
</svg>
