<svg width="30" height="31" viewBox="0 0 30 31" fill="none" xmlns="http://www.w3.org/2000/svg">
<g clip-path="url(#clip0_282_4907)">
<path d="M22.5838 5.86626C22.8548 6.54788 23.3749 7.08967 24.0299 7.37253L26.3267 8.36193C26.9821 8.64428 27.5029 9.18587 27.7744 9.86753C28.0458 10.5492 28.0458 11.3151 27.7744 11.9968L26.8237 14.3837C26.5521 15.0656 26.5517 15.8323 26.8245 16.514L27.7736 18.9002C27.9081 19.2378 27.9775 19.5997 27.9775 19.9652C27.9776 20.3306 27.9084 20.6926 27.7739 21.0302C27.6394 21.3679 27.4423 21.6747 27.1937 21.9331C26.9452 22.1915 26.6501 22.3964 26.3254 22.5362L24.0303 23.5249C23.3749 23.8067 22.854 24.3477 22.582 25.0289L21.6306 27.4175C21.3591 28.0991 20.8384 28.6407 20.1829 28.9231C19.5275 29.2054 18.791 29.2054 18.1356 28.9231L15.8405 27.9344C15.185 27.6527 14.4488 27.6533 13.7938 27.936L11.497 28.924C10.842 29.2057 10.1061 29.2054 9.45122 28.9233C8.7963 28.6412 8.27584 28.1002 8.00416 27.4193L7.05254 25.03C6.78154 24.3484 6.26137 23.8066 5.60638 23.5237L3.30964 22.5343C2.65448 22.2521 2.13388 21.7108 1.86228 21.0296C1.59069 20.3483 1.59032 19.5827 1.86126 18.9012L2.81191 16.5143C3.08274 15.8326 3.08219 15.067 2.81038 14.3857L1.86109 11.9954C1.72649 11.6578 1.65719 11.2959 1.65714 10.9304C1.65708 10.5649 1.72627 10.203 1.86076 9.86531C1.99524 9.52764 2.19239 9.22085 2.44093 8.96245C2.68947 8.70405 2.98453 8.49912 3.30925 8.35936L5.60434 7.37068C6.25916 7.08909 6.77981 6.54879 7.05199 5.86838L8.00333 3.47978C8.27482 2.79811 8.79558 2.25653 9.45103 1.97417C10.1065 1.69182 10.8429 1.69182 11.4984 1.97417L13.7935 2.96286C14.4489 3.24452 15.1851 3.24394 15.8402 2.96126L18.1379 1.97571C18.7933 1.69351 19.5296 1.69357 20.1849 1.97587C20.8402 2.25817 21.3609 2.7996 21.6324 3.48109L22.584 5.8704L22.5838 5.86626Z" fill="#F5CA2E"/>
<path fill-rule="evenodd" clip-rule="evenodd" d="M20.4038 11.5591C20.5944 11.2477 20.6583 10.8704 20.5814 10.51C20.5044 10.1497 20.293 9.83589 19.9936 9.63766C19.6943 9.43943 19.3314 9.37301 18.9849 9.45301C18.6384 9.533 18.3367 9.75287 18.1461 10.0642L12.9085 18.6235L10.5117 15.5077C10.2901 15.2194 9.96746 15.0345 9.6148 14.9937C9.26213 14.9528 8.9083 15.0593 8.63114 15.2898C8.35398 15.5202 8.17619 15.8557 8.1369 16.2225C8.0976 16.5893 8.20001 16.9573 8.42159 17.2455L11.9883 21.8822C12.1212 22.0552 12.2919 22.1927 12.4862 22.2833C12.6806 22.3738 12.8929 22.4148 13.1055 22.4029C13.3181 22.3909 13.5249 22.3263 13.7087 22.2144C13.8925 22.1026 14.048 21.9467 14.1621 21.7598L20.4038 11.5591Z" fill="#F5C92E"/>
<path d="M16.3753 8.61258V21.8936H13.9694V10.9536H13.8916L10.7854 12.938V10.7331L14.0861 8.61258H16.3753Z" fill="white"/>
</g>
<defs>
<clipPath id="clip0_282_4907">
<rect width="28.5333" height="29.6747" fill="white" transform="translate(0.549561 0.611328)"/>
</clipPath>
</defs>
</svg>
