<svg width="30" height="30" viewBox="0 0 30 30" fill="none" xmlns="http://www.w3.org/2000/svg">
<g clip-path="url(#clip0_282_4924)">
<path d="M23.0108 5.57622C23.2818 6.25784 23.8019 6.79963 24.4569 7.08249L26.7537 8.07189C27.4091 8.35424 27.9299 8.89583 28.2014 9.5775C28.4728 10.2592 28.4728 11.0251 28.2014 11.7067L27.2507 14.0936C26.9791 14.7756 26.9787 15.5423 27.2516 16.2239L28.2006 18.6101C28.3352 18.9477 28.4045 19.3096 28.4045 19.6751C28.4046 20.0406 28.3354 20.4025 28.2009 20.7402C28.0664 21.0779 27.8693 21.3847 27.6207 21.6431C27.3722 21.9014 27.0771 22.1064 26.7524 22.2461L24.4573 23.2348C23.8019 23.5167 23.281 24.0576 23.009 24.7388L22.0576 27.1274C21.7861 27.8091 21.2654 28.3507 20.6099 28.633C19.9545 28.9154 19.218 28.9154 18.5626 28.633L16.2675 27.6444C15.612 27.3627 14.8758 27.3633 14.2208 27.646L11.924 28.6339C11.269 28.9156 10.5331 28.9154 9.87822 28.6333C9.2233 28.3511 8.70284 27.8102 8.43116 27.1293L7.47954 24.7399C7.20854 24.0583 6.68837 23.5165 6.03338 23.2337L3.73664 22.2443C3.08148 21.962 2.56088 21.4208 2.28928 20.7395C2.01769 20.0583 2.01732 19.2927 2.28826 18.6111L3.23892 16.2243C3.50974 15.5426 3.50919 14.7769 3.23738 14.0957L2.28809 11.7053C2.1535 11.3677 2.08419 11.0058 2.08414 10.6403C2.08408 10.2749 2.15327 9.91294 2.28776 9.57527C2.42225 9.2376 2.61939 8.93081 2.86793 8.67241C3.11647 8.41401 3.41153 8.20908 3.73625 8.06932L6.03134 7.08064C6.68617 6.79905 7.20681 6.25875 7.47899 5.57835L8.43033 3.18974C8.70183 2.50807 9.22258 1.96649 9.87803 1.68413C10.5335 1.40178 11.2699 1.40178 11.9254 1.68414L14.2205 2.67282C14.8759 2.95448 15.6121 2.9539 16.2672 2.67122L18.5649 1.68567C19.2203 1.40347 19.9566 1.40353 20.6119 1.68583C21.2672 1.96813 21.7879 2.50956 22.0594 3.19105L23.011 5.58036L23.0108 5.57622Z" fill="#0788F5"/>
<path d="M10.4753 21.6035V19.8656L15.086 15.3456C15.527 14.9003 15.8945 14.5048 16.1885 14.1589C16.4824 13.8131 16.7029 13.478 16.8499 13.1538C16.9969 12.8295 17.0704 12.4837 17.0704 12.1162C17.0704 11.6968 16.9753 11.338 16.7851 11.0397C16.5948 10.7371 16.3333 10.5036 16.0004 10.3393C15.6675 10.1751 15.2892 10.0929 14.8655 10.0929C14.4289 10.0929 14.0463 10.1837 13.7177 10.3653C13.3892 10.5425 13.1341 10.7954 12.9525 11.124C12.7753 11.4526 12.6866 11.8438 12.6866 12.2978H10.3975C10.3975 11.4547 10.5899 10.7219 10.9746 10.0994C11.3594 9.47685 11.889 8.99481 12.5634 8.65327C13.2422 8.31174 14.0204 8.14097 14.898 8.14097C15.7886 8.14097 16.5711 8.30741 17.2455 8.6403C17.9199 8.97319 18.443 9.42929 18.8148 10.0086C19.1909 10.5879 19.379 11.2494 19.379 11.993C19.379 12.4901 19.2839 12.9787 19.0937 13.4585C18.9034 13.9384 18.5684 14.4702 18.0885 15.0538C17.613 15.6375 16.945 16.3443 16.0847 17.1744L13.7955 19.5024V19.5932H19.58V21.6035H10.4753Z" fill="white"/>
</g>
<defs>
<clipPath id="clip0_282_4924">
<rect width="28.5333" height="29.6747" fill="white" transform="translate(0.976807 0.320312)"/>
</clipPath>
</defs>
</svg>
